<?xml version="1.0" encoding="iso-8859-1"?>
<!-- Generator: Adobe Illustrator 19.0.0, SVG Export Plug-In . SVG Version: 6.00 Build 0)  -->
<svg version="1.1" id="Capa_1" xmlns="http://www.w3.org/2000/svg" xmlns:xlink="http://www.w3.org/1999/xlink" x="0px" y="0px"
	 viewBox="0 0 512 512" style="enable-background:new 0 0 512 512;" xml:space="preserve">
<path style="fill:#8CC153;" d="M441.379,389.385H0V177.523h441.379V389.385z"/>
<path style="fill:#87B748;" d="M9.807,177.523L35.31,62.755l394.522,88.779l-4.661,25.988"/>
<path style="fill:#A0D468;" d="M282.483,354.074h66.498l39.433-38.462v-0.768v-62.782l-35.866-39.23h-70.065H141.241H74.743
	L35.31,251.295v0.768v62.782l35.866,39.23h70.065H282.483z"/>
<path style="fill:#7CAA33;" d="M98.79,77.038l28.972-69.182l287.135,119.64l-6.321,19.253"/>
<path style="fill:#F8CF26;" d="M335.448,442.35v35.31c0,14.627,39.521,26.483,88.276,26.483S512,492.288,512,477.661v-35.31"/>
<circle style="fill:#8CC153;" cx="211.862" cy="283.454" r="70.621"/>
<path style="fill:#CDA349;" d="M335.448,407.04v35.31c0,14.627,39.521,26.483,88.276,26.483S512,456.978,512,442.35v-35.31"/>
<path style="fill:#F8CF26;" d="M335.448,371.73v35.31c0,14.627,39.521,26.483,88.276,26.483S512,421.667,512,407.04v-35.31"/>
<path style="fill:#CDA349;" d="M335.448,336.419v35.31c0,14.627,39.521,26.483,88.276,26.483S512,386.357,512,371.73v-35.31"/>
<path style="fill:#F8CF26;" d="M335.448,301.109v35.31c0,14.627,39.521,26.483,88.276,26.483S512,351.047,512,336.419v-35.31"/>
<path style="fill:#CDA349;" d="M335.448,265.799v35.31c0,14.627,39.521,26.483,88.276,26.483S512,315.736,512,301.109v-35.31"/>
<ellipse style="fill:#F8CF26;" cx="423.724" cy="265.799" rx="88.276" ry="26.483"/>
<path style="fill:#A0D468;" d="M216.276,274.626h-8.828c-2.745,0-4.414-1.536-4.414-2.207s1.668-2.207,4.414-2.207h22.069
	c4.873,0,8.828-3.955,8.828-8.828s-3.955-8.828-8.828-8.828h-8.828c0-4.873-3.955-8.828-8.828-8.828
	c-4.873,0-8.828,3.955-8.828,8.828v0.397c-9.79,1.386-17.205,9.543-17.655,19.421c0.636,11.573,10.487,20.471,22.069,19.906h8.828
	c2.745,0,4.414,1.536,4.414,2.207s-1.668,2.207-4.414,2.207h-22.069c-4.873,0-8.828,3.955-8.828,8.828
	c0,4.873,3.955,8.828,8.828,8.828h8.828c0,4.873,3.955,8.828,8.828,8.828c4.873,0,8.828-3.955,8.828-8.828v-0.397
	c9.79-1.386,17.205-9.543,17.655-19.421C237.709,282.951,227.858,274.061,216.276,274.626z"/>
<g>
</g>
<g>
</g>
<g>
</g>
<g>
</g>
<g>
</g>
<g>
</g>
<g>
</g>
<g>
</g>
<g>
</g>
<g>
</g>
<g>
</g>
<g>
</g>
<g>
</g>
<g>
</g>
<g>
</g>
</svg>
